<svg width="32" height="32" viewBox="0 0 32 32" xmlns="http://www.w3.org/2000/svg">
  <defs>
    <linearGradient id="primaryGradient" x1="0%" y1="0%" x2="100%" y2="100%">
      <stop offset="0%" style="stop-color:#667eea;stop-opacity:1" />
      <stop offset="100%" style="stop-color:#764ba2;stop-opacity:1" />
    </linearGradient>
    <linearGradient id="accentGradient" x1="0%" y1="0%" x2="100%" y2="100%">
      <stop offset="0%" style="stop-color:#4facfe;stop-opacity:1" />
      <stop offset="100%" style="stop-color:#00f2fe;stop-opacity:1" />
    </linearGradient>
    <filter id="glow" x="-50%" y="-50%" width="200%" height="200%">
      <feGaussianBlur stdDeviation="2" result="coloredBlur"/>
      <feMerge> 
        <feMergeNode in="coloredBlur"/>
        <feMergeNode in="SourceGraphic"/>
      </feMerge>
    </filter>
  </defs>
  
  <!-- Background circle with glassmorphism effect -->
  <circle cx="16" cy="16" r="14" fill="url(#primaryGradient)" opacity="0.9"/>
  <circle cx="16" cy="16" r="14" fill="none" stroke="rgba(255,255,255,0.3)" stroke-width="0.5"/>
  
  <!-- Letter "S" for Sandeep -->
  <path d="M12 10 C12 8, 14 8, 16 8 C18 8, 20 8, 20 10 C20 12, 18 12, 16 13 C14 14, 12 14, 12 16 C12 18, 14 18, 16 18 C18 18, 20 18, 20 16" 
        fill="none" 
        stroke="white" 
        stroke-width="2.5" 
        stroke-linecap="round" 
        stroke-linejoin="round"
        filter="url(#glow)"/>
  
  <!-- Decorative code brackets -->
  <path d="M8 12 L6 14 L8 16" fill="none" stroke="url(#accentGradient)" stroke-width="1.5" stroke-linecap="round" opacity="0.8"/>
  <path d="M24 12 L26 14 L24 16" fill="none" stroke="url(#accentGradient)" stroke-width="1.5" stroke-linecap="round" opacity="0.8"/>
  
  <!-- Small accent dots -->
  <circle cx="10" cy="20" r="1" fill="rgba(255,255,255,0.6)"/>
  <circle cx="22" cy="8" r="1" fill="rgba(255,255,255,0.6)"/>
</svg>